<svg xmlns="http://www.w3.org/2000/svg" width="1280" height="760" viewBox="0 0 1280 760" role="img" aria-labelledby="title desc">
<title id="title">Kjølesystem</title>
<desc id="desc">Samspill mellom ferskvannskrets, sjøvannskrets og varmeveksler</desc>

    <defs>
      <marker id="arrow" viewBox="0 0 10 10" refX="9" refY="5" markerWidth="8" markerHeight="8" orient="auto-start-reverse">
        <path d="M 0 0 L 10 5 L 0 10 z" fill="#334155"/>
      </marker>
      <filter id="shadow" x="-20%" y="-20%" width="140%" height="140%">
        <feDropShadow dx="0" dy="4" stdDeviation="5" flood-color="#0f172a" flood-opacity="0.12"/>
      </filter>
      <style>
        .title{font:700 34px Arial,Helvetica,sans-serif;fill:#172033}
        .subtitle{font:400 17px Arial,Helvetica,sans-serif;fill:#526071}
        .label{font:700 16px Arial,Helvetica,sans-serif;fill:#172033}
        .small{font:400 13px Arial,Helvetica,sans-serif;fill:#526071}
        .tiny{font:400 12px Arial,Helvetica,sans-serif;fill:#526071}
        .arrow{fill:none;stroke:#334155;stroke-width:4;stroke-linecap:round;stroke-linejoin:round;marker-end:url(#arrow)}
        .flow-blue{stroke:#2563eb}.flow-red{stroke:#dc2626}.flow-green{stroke:#0f766e}.flow-orange{stroke:#ea580c}.flow-cyan{stroke:#0891b2}.flow-purple{stroke:#7c3aed}.flow-slate{stroke:#334155}.flow-gray{stroke:#64748b}
      </style>
    </defs>
<rect width="1280" height="760" rx="0" fill="#f8fafc"/>
<text x="48" y="58" class="title">Kjølesystem</text>
<text x="48" y="88" class="subtitle">Samspill mellom ferskvannskrets, sjøvannskrets og varmeveksler</text>
<line x1="48" y1="126" x2="1232" y2="126" stroke="#e2e8f0" stroke-width="1"/>
<line x1="48" y1="324" x2="1232" y2="324" stroke="#e2e8f0" stroke-width="1"/>
<line x1="48" y1="522" x2="1232" y2="522" stroke="#e2e8f0" stroke-width="1"/>
<rect x="130" y="250" width="180" height="110" rx="12" fill="#e2e8f0" stroke="#334155" stroke-width="2.5" filter="url(#shadow)"/>
<text x="220.0" y="297.0" text-anchor="middle" class="label">Motor / cylinder head</text>
<text x="220.0" y="325.0" text-anchor="middle" class="small">red</text>
<rect x="380" y="185" width="150" height="80" rx="12" fill="#e2e8f0" stroke="#334155" stroke-width="2.5" filter="url(#shadow)"/>
<text x="455.0" y="217.0" text-anchor="middle" class="label">Ferskvannspumpe</text>
<text x="455.0" y="245.0" text-anchor="middle" class="small">blue</text>
<rect x="595" y="185" width="150" height="80" rx="12" fill="#e2e8f0" stroke="#334155" stroke-width="2.5" filter="url(#shadow)"/>
<text x="670.0" y="217.0" text-anchor="middle" class="label">Termostat</text>
<text x="670.0" y="245.0" text-anchor="middle" class="small">amber</text>
<rect x="805" y="205" width="170" height="110" rx="12" fill="#e2e8f0" stroke="#334155" stroke-width="2.5" filter="url(#shadow)"/>
<text x="890.0" y="252.0" text-anchor="middle" class="label">Varmeveksler</text>
<text x="890.0" y="280.0" text-anchor="middle" class="small">blue</text>
<rect x="600" y="360" width="145" height="80" rx="12" fill="#e2e8f0" stroke="#334155" stroke-width="2.5" filter="url(#shadow)"/>
<text x="672.5" y="392.0" text-anchor="middle" class="label">Ekspansjonstank</text>
<text x="672.5" y="420.0" text-anchor="middle" class="small">cyan</text>
<rect x="125" y="500" width="145" height="75" rx="12" fill="#e2e8f0" stroke="#334155" stroke-width="2.5" filter="url(#shadow)"/>
<text x="197.5" y="529.5" text-anchor="middle" class="label">Sjøvann inn</text>
<text x="197.5" y="557.5" text-anchor="middle" class="small">cyan</text>
<rect x="350" y="500" width="150" height="75" rx="12" fill="#e2e8f0" stroke="#334155" stroke-width="2.5" filter="url(#shadow)"/>
<text x="425.0" y="529.5" text-anchor="middle" class="label">Sjøvannspumpe</text>
<text x="425.0" y="557.5" text-anchor="middle" class="small">cyan</text>
<rect x="860" y="520" width="150" height="75" rx="12" fill="#e2e8f0" stroke="#334155" stroke-width="2.5" filter="url(#shadow)"/>
<text x="935.0" y="549.5" text-anchor="middle" class="label">Ut via eksosbend</text>
<text x="935.0" y="577.5" text-anchor="middle" class="small">red</text>
<line x1="220.0" y1="305.0" x2="455.0" y2="225.0" class="arrow flow-red"/>
<rect x="267.5" y="247.0" width="140" height="25" rx="12" fill="white" stroke="#e2e8f0"/>
<text x="337.5" y="265.0" text-anchor="middle" class="tiny">varm kjølevæske</text>
<line x1="455.0" y1="225.0" x2="670.0" y2="225.0" class="arrow flow-blue"/>
<rect x="492.5" y="207.0" width="140" height="25" rx="12" fill="white" stroke="#e2e8f0"/>
<text x="562.5" y="225.0" text-anchor="middle" class="tiny">sirkulasjon</text>
<line x1="670.0" y1="225.0" x2="890.0" y2="260.0" class="arrow flow-blue"/>
<rect x="710.0" y="224.5" width="140" height="25" rx="12" fill="white" stroke="#e2e8f0"/>
<text x="780.0" y="242.5" text-anchor="middle" class="tiny">åpen krets</text>
<line x1="890.0" y1="260.0" x2="220.0" y2="305.0" class="arrow flow-blue"/>
<rect x="485.0" y="264.5" width="140" height="25" rx="12" fill="white" stroke="#e2e8f0"/>
<text x="555.0" y="282.5" text-anchor="middle" class="tiny">avkjølt</text>
<line x1="672.5" y1="400.0" x2="455.0" y2="225.0" class="arrow flow-cyan"/>
<rect x="493.75" y="294.5" width="140" height="25" rx="12" fill="white" stroke="#e2e8f0"/>
<text x="563.75" y="312.5" text-anchor="middle" class="tiny">nivå / lufting</text>
<line x1="197.5" y1="537.5" x2="425.0" y2="537.5" class="arrow flow-cyan"/>
<rect x="241.25" y="519.5" width="140" height="25" rx="12" fill="white" stroke="#e2e8f0"/>
<text x="311.25" y="537.5" text-anchor="middle" class="tiny">sjøvann</text>
<line x1="425.0" y1="537.5" x2="890.0" y2="260.0" class="arrow flow-cyan"/>
<rect x="587.5" y="380.75" width="140" height="25" rx="12" fill="white" stroke="#e2e8f0"/>
<text x="657.5" y="398.75" text-anchor="middle" class="tiny">kjøler</text>
<line x1="890.0" y1="260.0" x2="935.0" y2="557.5" class="arrow flow-red"/>
<rect x="842.5" y="390.75" width="140" height="25" rx="12" fill="white" stroke="#e2e8f0"/>
<text x="912.5" y="408.75" text-anchor="middle" class="tiny">ut</text>
<rect x="48" y="690" width="1184" height="42" rx="10" fill="#fff" stroke="#e2e8f0"/>
<text x="64" y="716" class="small">Kontroller alltid om feilen ligger i ferskvannskrets, sjøvannskrets, lufting, reimdrift eller sensor.</text>
</svg>
