<svg xmlns="http://www.w3.org/2000/svg" width="1280" height="760" viewBox="0 0 1280 760" role="img" aria-labelledby="title desc">
<title id="title">Luftinntak</title>
<desc id="desc">Fra friskluft via filter og turbo til innsugsmanifold</desc>

    <defs>
      <marker id="arrow" viewBox="0 0 10 10" refX="9" refY="5" markerWidth="8" markerHeight="8" orient="auto-start-reverse">
        <path d="M 0 0 L 10 5 L 0 10 z" fill="#334155"/>
      </marker>
      <filter id="shadow" x="-20%" y="-20%" width="140%" height="140%">
        <feDropShadow dx="0" dy="4" stdDeviation="5" flood-color="#0f172a" flood-opacity="0.12"/>
      </filter>
      <style>
        .title{font:700 34px Arial,Helvetica,sans-serif;fill:#172033}
        .subtitle{font:400 17px Arial,Helvetica,sans-serif;fill:#526071}
        .label{font:700 16px Arial,Helvetica,sans-serif;fill:#172033}
        .small{font:400 13px Arial,Helvetica,sans-serif;fill:#526071}
        .tiny{font:400 12px Arial,Helvetica,sans-serif;fill:#526071}
        .arrow{fill:none;stroke:#334155;stroke-width:4;stroke-linecap:round;stroke-linejoin:round;marker-end:url(#arrow)}
        .flow-blue{stroke:#2563eb}.flow-red{stroke:#dc2626}.flow-green{stroke:#0f766e}.flow-orange{stroke:#ea580c}.flow-cyan{stroke:#0891b2}.flow-purple{stroke:#7c3aed}.flow-slate{stroke:#334155}.flow-gray{stroke:#64748b}
      </style>
    </defs>
<rect width="1280" height="760" rx="0" fill="#f8fafc"/>
<text x="48" y="58" class="title">Luftinntak</text>
<text x="48" y="88" class="subtitle">Fra friskluft via filter og turbo til innsugsmanifold</text>
<line x1="48" y1="126" x2="1232" y2="126" stroke="#e2e8f0" stroke-width="1"/>
<line x1="48" y1="324" x2="1232" y2="324" stroke="#e2e8f0" stroke-width="1"/>
<line x1="48" y1="522" x2="1232" y2="522" stroke="#e2e8f0" stroke-width="1"/>
<rect x="70" y="305" width="150" height="85" rx="12" fill="#e2e8f0" stroke="#334155" stroke-width="2.5" filter="url(#shadow)"/>
<text x="145.0" y="339.5" text-anchor="middle" class="label">Motorromsluft</text>
<text x="145.0" y="367.5" text-anchor="middle" class="small">cyan</text>
<path d="M280,303 C280,279 430,279 430,303 L430,372 C430,396 280,396 280,372 Z" fill="#e2e8f0" stroke="#334155" stroke-width="2.5" filter="url(#shadow)"/>
<ellipse cx="355.0" cy="303" rx="75.0" ry="18" fill="#e2e8f0" stroke="#334155" stroke-width="2.5"/>
<text x="355.0" y="329.5" text-anchor="middle" class="label">Luftfilter</text>
<text x="355.0" y="357.5" text-anchor="middle" class="small">cyan</text>
<circle cx="575.0" cy="337.5" r="67.5" fill="#e2e8f0" stroke="#334155" stroke-width="2.5" filter="url(#shadow)"/>
<text x="575.0" y="329.5" text-anchor="middle" class="label">Turbo kompressor</text>
<text x="575.0" y="357.5" text-anchor="middle" class="small">orange</text>
<rect x="720" y="285" width="170" height="105" rx="12" fill="#e2e8f0" stroke="#334155" stroke-width="2.5" filter="url(#shadow)"/>
<text x="805.0" y="329.5" text-anchor="middle" class="label">Intercooler</text>
<text x="805.0" y="357.5" text-anchor="middle" class="small">cyan</text>
<rect x="950" y="295" width="170" height="90" rx="12" fill="#e2e8f0" stroke="#334155" stroke-width="2.5" filter="url(#shadow)"/>
<text x="1035.0" y="332.0" text-anchor="middle" class="label">Innsugsmanifold</text>
<text x="1035.0" y="360.0" text-anchor="middle" class="small">slate</text>
<rect x="720" y="470" width="170" height="75" rx="12" fill="#e2e8f0" stroke="#334155" stroke-width="2.5" filter="url(#shadow)"/>
<text x="805.0" y="499.5" text-anchor="middle" class="label">MAP/IAT sensor</text>
<text x="805.0" y="527.5" text-anchor="middle" class="small">purple</text>
<line x1="145.0" y1="347.5" x2="355.0" y2="337.5" class="arrow flow-cyan"/>
<rect x="180.0" y="324.5" width="140" height="25" rx="12" fill="white" stroke="#e2e8f0"/>
<text x="250.0" y="342.5" text-anchor="middle" class="tiny">frisk luft</text>
<line x1="355.0" y1="337.5" x2="575.0" y2="337.5" class="arrow flow-cyan"/>
<rect x="395.0" y="319.5" width="140" height="25" rx="12" fill="white" stroke="#e2e8f0"/>
<text x="465.0" y="337.5" text-anchor="middle" class="tiny">filtrert</text>
<line x1="575.0" y1="337.5" x2="805.0" y2="337.5" class="arrow flow-orange"/>
<rect x="620.0" y="319.5" width="140" height="25" rx="12" fill="white" stroke="#e2e8f0"/>
<text x="690.0" y="337.5" text-anchor="middle" class="tiny">trykkluft</text>
<line x1="805.0" y1="337.5" x2="1035.0" y2="340.0" class="arrow flow-cyan"/>
<rect x="850.0" y="320.75" width="140" height="25" rx="12" fill="white" stroke="#e2e8f0"/>
<text x="920.0" y="338.75" text-anchor="middle" class="tiny">kjølt luft</text>
<line x1="805.0" y1="507.5" x2="1035.0" y2="340.0" class="arrow flow-purple"/>
<rect x="850.0" y="405.75" width="140" height="25" rx="12" fill="white" stroke="#e2e8f0"/>
<text x="920.0" y="423.75" text-anchor="middle" class="tiny">måling</text>
<rect x="48" y="690" width="1184" height="42" rx="10" fill="#fff" stroke="#e2e8f0"/>
<text x="64" y="716" class="small">Tett filter, lekkasje etter turbo eller feil sensor kan oppleves som lav effekt.</text>
</svg>
