<svg xmlns="http://www.w3.org/2000/svg" width="1280" height="760" viewBox="0 0 1280 760" role="img" aria-labelledby="title desc">
<title id="title">Oljeflyt</title>
<desc id="desc">Pedagogisk flyt for trykksmøring og retur</desc>

    <defs>
      <marker id="arrow" viewBox="0 0 10 10" refX="9" refY="5" markerWidth="8" markerHeight="8" orient="auto-start-reverse">
        <path d="M 0 0 L 10 5 L 0 10 z" fill="#334155"/>
      </marker>
      <filter id="shadow" x="-20%" y="-20%" width="140%" height="140%">
        <feDropShadow dx="0" dy="4" stdDeviation="5" flood-color="#0f172a" flood-opacity="0.12"/>
      </filter>
      <style>
        .title{font:700 34px Arial,Helvetica,sans-serif;fill:#172033}
        .subtitle{font:400 17px Arial,Helvetica,sans-serif;fill:#526071}
        .label{font:700 16px Arial,Helvetica,sans-serif;fill:#172033}
        .small{font:400 13px Arial,Helvetica,sans-serif;fill:#526071}
        .tiny{font:400 12px Arial,Helvetica,sans-serif;fill:#526071}
        .arrow{fill:none;stroke:#334155;stroke-width:4;stroke-linecap:round;stroke-linejoin:round;marker-end:url(#arrow)}
        .flow-blue{stroke:#2563eb}.flow-red{stroke:#dc2626}.flow-green{stroke:#0f766e}.flow-orange{stroke:#ea580c}.flow-cyan{stroke:#0891b2}.flow-purple{stroke:#7c3aed}.flow-slate{stroke:#334155}.flow-gray{stroke:#64748b}
      </style>
    </defs>
<rect width="1280" height="760" rx="0" fill="#f8fafc"/>
<text x="48" y="58" class="title">Oljeflyt</text>
<text x="48" y="88" class="subtitle">Pedagogisk flyt for trykksmøring og retur</text>
<line x1="48" y1="126" x2="1232" y2="126" stroke="#e2e8f0" stroke-width="1"/>
<line x1="48" y1="324" x2="1232" y2="324" stroke="#e2e8f0" stroke-width="1"/>
<line x1="48" y1="522" x2="1232" y2="522" stroke="#e2e8f0" stroke-width="1"/>
<rect x="70" y="520" width="170" height="80" rx="12" fill="#e2e8f0" stroke="#334155" stroke-width="2.5" filter="url(#shadow)"/>
<text x="155.0" y="552.0" text-anchor="middle" class="label">1 Sump</text>
<text x="155.0" y="580.0" text-anchor="middle" class="small">amber</text>
<circle cx="375.0" cy="480.0" r="50.0" fill="#e2e8f0" stroke="#334155" stroke-width="2.5" filter="url(#shadow)"/>
<text x="375.0" y="472.0" text-anchor="middle" class="label">2 Pumpe</text>
<text x="375.0" y="500.0" text-anchor="middle" class="small">amber</text>
<path d="M515,353 C515,329 665,329 665,353 L665,417 C665,441 515,441 515,417 Z" fill="#e2e8f0" stroke="#334155" stroke-width="2.5" filter="url(#shadow)"/>
<ellipse cx="590.0" cy="353" rx="75.0" ry="18" fill="#e2e8f0" stroke="#334155" stroke-width="2.5"/>
<text x="590.0" y="377.0" text-anchor="middle" class="label">3 Filter</text>
<text x="590.0" y="405.0" text-anchor="middle" class="small">amber</text>
<rect x="730" y="245" width="150" height="100" rx="12" fill="#e2e8f0" stroke="#334155" stroke-width="2.5" filter="url(#shadow)"/>
<text x="805.0" y="287.0" text-anchor="middle" class="label">4 Kjøler</text>
<text x="805.0" y="315.0" text-anchor="middle" class="small">blue</text>
<rect x="945" y="335" width="170" height="100" rx="12" fill="#e2e8f0" stroke="#334155" stroke-width="2.5" filter="url(#shadow)"/>
<text x="1030.0" y="377.0" text-anchor="middle" class="label">5 Oljekanaler</text>
<text x="1030.0" y="405.0" text-anchor="middle" class="small">amber</text>
<rect x="720" y="500" width="170" height="90" rx="12" fill="#e2e8f0" stroke="#334155" stroke-width="2.5" filter="url(#shadow)"/>
<text x="805.0" y="537.0" text-anchor="middle" class="label">6 Lager/turbo</text>
<text x="805.0" y="565.0" text-anchor="middle" class="small">slate</text>
<rect x="470" y="570" width="150" height="70" rx="12" fill="#e2e8f0" stroke="#334155" stroke-width="2.5" filter="url(#shadow)"/>
<text x="545.0" y="597.0" text-anchor="middle" class="label">7 Retur</text>
<text x="545.0" y="625.0" text-anchor="middle" class="small">gray</text>
<line x1="155.0" y1="560.0" x2="375.0" y2="480.0" class="arrow flow-orange"/>
<rect x="195.0" y="502.0" width="140" height="25" rx="12" fill="white" stroke="#e2e8f0"/>
<text x="265.0" y="520.0" text-anchor="middle" class="tiny">sug</text>
<line x1="375.0" y1="480.0" x2="590.0" y2="385.0" class="arrow flow-orange"/>
<rect x="412.5" y="414.5" width="140" height="25" rx="12" fill="white" stroke="#e2e8f0"/>
<text x="482.5" y="432.5" text-anchor="middle" class="tiny">trykk</text>
<line x1="590.0" y1="385.0" x2="805.0" y2="295.0" class="arrow flow-orange"/>
<rect x="627.5" y="322.0" width="140" height="25" rx="12" fill="white" stroke="#e2e8f0"/>
<text x="697.5" y="340.0" text-anchor="middle" class="tiny">ren olje</text>
<line x1="805.0" y1="295.0" x2="1030.0" y2="385.0" class="arrow flow-orange"/>
<rect x="847.5" y="322.0" width="140" height="25" rx="12" fill="white" stroke="#e2e8f0"/>
<text x="917.5" y="340.0" text-anchor="middle" class="tiny">temperert</text>
<line x1="1030.0" y1="385.0" x2="805.0" y2="545.0" class="arrow flow-orange"/>
<rect x="847.5" y="447.0" width="140" height="25" rx="12" fill="white" stroke="#e2e8f0"/>
<text x="917.5" y="465.0" text-anchor="middle" class="tiny">fordeling</text>
<line x1="805.0" y1="545.0" x2="545.0" y2="605.0" class="arrow flow-orange"/>
<rect x="605.0" y="557.0" width="140" height="25" rx="12" fill="white" stroke="#e2e8f0"/>
<text x="675.0" y="575.0" text-anchor="middle" class="tiny">retur</text>
<line x1="545.0" y1="605.0" x2="155.0" y2="560.0" class="arrow flow-orange"/>
<rect x="48" y="690" width="1184" height="42" rx="10" fill="#fff" stroke="#e2e8f0"/>
<text x="64" y="716" class="small">Bruk flyten til å forklare hvorfor filter, viskositet, nivå og sensor må kontrolleres samlet.</text>
</svg>
