<svg xmlns="http://www.w3.org/2000/svg" width="1280" height="760" viewBox="0 0 1280 760" role="img" aria-labelledby="title desc">
<title id="title">Elektriske systemer</title>
<desc id="desc">Strømforsyning, vern, forbrukere og styresignaler</desc>

    <defs>
      <marker id="arrow" viewBox="0 0 10 10" refX="9" refY="5" markerWidth="8" markerHeight="8" orient="auto-start-reverse">
        <path d="M 0 0 L 10 5 L 0 10 z" fill="#334155"/>
      </marker>
      <filter id="shadow" x="-20%" y="-20%" width="140%" height="140%">
        <feDropShadow dx="0" dy="4" stdDeviation="5" flood-color="#0f172a" flood-opacity="0.12"/>
      </filter>
      <style>
        .title{font:700 34px Arial,Helvetica,sans-serif;fill:#172033}
        .subtitle{font:400 17px Arial,Helvetica,sans-serif;fill:#526071}
        .label{font:700 16px Arial,Helvetica,sans-serif;fill:#172033}
        .small{font:400 13px Arial,Helvetica,sans-serif;fill:#526071}
        .tiny{font:400 12px Arial,Helvetica,sans-serif;fill:#526071}
        .arrow{fill:none;stroke:#334155;stroke-width:4;stroke-linecap:round;stroke-linejoin:round;marker-end:url(#arrow)}
        .flow-blue{stroke:#2563eb}.flow-red{stroke:#dc2626}.flow-green{stroke:#0f766e}.flow-orange{stroke:#ea580c}.flow-cyan{stroke:#0891b2}.flow-purple{stroke:#7c3aed}.flow-slate{stroke:#334155}.flow-gray{stroke:#64748b}
      </style>
    </defs>
<rect width="1280" height="760" rx="0" fill="#f8fafc"/>
<text x="48" y="58" class="title">Elektriske systemer</text>
<text x="48" y="88" class="subtitle">Strømforsyning, vern, forbrukere og styresignaler</text>
<line x1="48" y1="126" x2="1232" y2="126" stroke="#e2e8f0" stroke-width="1"/>
<line x1="48" y1="324" x2="1232" y2="324" stroke="#e2e8f0" stroke-width="1"/>
<line x1="48" y1="522" x2="1232" y2="522" stroke="#e2e8f0" stroke-width="1"/>
<rect x="70" y="300" width="150" height="95" rx="12" fill="#e2e8f0" stroke="#334155" stroke-width="2.5" filter="url(#shadow)"/>
<text x="145.0" y="339.5" text-anchor="middle" class="label">Batteribank</text>
<text x="145.0" y="367.5" text-anchor="middle" class="small">amber</text>
<rect x="280" y="310" width="150" height="80" rx="12" fill="#e2e8f0" stroke="#334155" stroke-width="2.5" filter="url(#shadow)"/>
<text x="355.0" y="342.0" text-anchor="middle" class="label">Hovedbryter</text>
<text x="355.0" y="370.0" text-anchor="middle" class="small">slate</text>
<rect x="490" y="310" width="150" height="80" rx="12" fill="#e2e8f0" stroke="#334155" stroke-width="2.5" filter="url(#shadow)"/>
<text x="565.0" y="342.0" text-anchor="middle" class="label">Sikring / breaker</text>
<text x="565.0" y="370.0" text-anchor="middle" class="small">red</text>
<rect x="700" y="300" width="165" height="95" rx="12" fill="#e2e8f0" stroke="#334155" stroke-width="2.5" filter="url(#shadow)"/>
<text x="782.5" y="339.5" text-anchor="middle" class="label">Instrumentpanel</text>
<text x="782.5" y="367.5" text-anchor="middle" class="small">cyan</text>
<rect x="940" y="280" width="160" height="110" rx="12" fill="#e2e8f0" stroke="#334155" stroke-width="2.5" filter="url(#shadow)"/>
<text x="1020.0" y="327.0" text-anchor="middle" class="label">ECU</text>
<text x="1020.0" y="355.0" text-anchor="middle" class="small">purple</text>
<rect x="700" y="470" width="165" height="85" rx="12" fill="#e2e8f0" stroke="#334155" stroke-width="2.5" filter="url(#shadow)"/>
<text x="782.5" y="504.5" text-anchor="middle" class="label">Forbrukere</text>
<text x="782.5" y="532.5" text-anchor="middle" class="small">blue</text>
<rect x="940" y="470" width="160" height="85" rx="12" fill="#e2e8f0" stroke="#334155" stroke-width="2.5" filter="url(#shadow)"/>
<text x="1020.0" y="504.5" text-anchor="middle" class="label">Jordpunkt</text>
<text x="1020.0" y="532.5" text-anchor="middle" class="small">gray</text>
<line x1="145.0" y1="347.5" x2="355.0" y2="350.0" class="arrow flow-orange"/>
<rect x="180.0" y="330.75" width="140" height="25" rx="12" fill="white" stroke="#e2e8f0"/>
<text x="250.0" y="348.75" text-anchor="middle" class="tiny">+</text>
<line x1="355.0" y1="350.0" x2="565.0" y2="350.0" class="arrow flow-orange"/>
<rect x="390.0" y="332.0" width="140" height="25" rx="12" fill="white" stroke="#e2e8f0"/>
<text x="460.0" y="350.0" text-anchor="middle" class="tiny">+</text>
<line x1="565.0" y1="350.0" x2="782.5" y2="347.5" class="arrow flow-orange"/>
<rect x="603.75" y="330.75" width="140" height="25" rx="12" fill="white" stroke="#e2e8f0"/>
<text x="673.75" y="348.75" text-anchor="middle" class="tiny">forsyning</text>
<line x1="565.0" y1="350.0" x2="1020.0" y2="335.0" class="arrow flow-orange"/>
<rect x="722.5" y="324.5" width="140" height="25" rx="12" fill="white" stroke="#e2e8f0"/>
<text x="792.5" y="342.5" text-anchor="middle" class="tiny">forsyning</text>
<line x1="565.0" y1="350.0" x2="782.5" y2="512.5" class="arrow flow-orange"/>
<rect x="603.75" y="413.25" width="140" height="25" rx="12" fill="white" stroke="#e2e8f0"/>
<text x="673.75" y="431.25" text-anchor="middle" class="tiny">+</text>
<line x1="782.5" y1="512.5" x2="1020.0" y2="512.5" class="arrow flow-slate"/>
<rect x="831.25" y="494.5" width="140" height="25" rx="12" fill="white" stroke="#e2e8f0"/>
<text x="901.25" y="512.5" text-anchor="middle" class="tiny">retur</text>
<line x1="1020.0" y1="335.0" x2="1020.0" y2="512.5" class="arrow flow-slate"/>
<rect x="950.0" y="405.75" width="140" height="25" rx="12" fill="white" stroke="#e2e8f0"/>
<text x="1020.0" y="423.75" text-anchor="middle" class="tiny">retur</text>
<rect x="48" y="690" width="1184" height="42" rx="10" fill="#fff" stroke="#e2e8f0"/>
<text x="64" y="716" class="small">Mange elektriske feil skyldes spenningsfall, dårlig jord, korrosjon eller feil sikringskurs.</text>
</svg>
