<svg xmlns="http://www.w3.org/2000/svg" width="1280" height="760" viewBox="0 0 1280 760" role="img" aria-labelledby="title desc">
<title id="title">Startmotor</title>
<desc id="desc">Startkrets med nøkkel, relé, solenoid og motor</desc>

    <defs>
      <marker id="arrow" viewBox="0 0 10 10" refX="9" refY="5" markerWidth="8" markerHeight="8" orient="auto-start-reverse">
        <path d="M 0 0 L 10 5 L 0 10 z" fill="#334155"/>
      </marker>
      <filter id="shadow" x="-20%" y="-20%" width="140%" height="140%">
        <feDropShadow dx="0" dy="4" stdDeviation="5" flood-color="#0f172a" flood-opacity="0.12"/>
      </filter>
      <style>
        .title{font:700 34px Arial,Helvetica,sans-serif;fill:#172033}
        .subtitle{font:400 17px Arial,Helvetica,sans-serif;fill:#526071}
        .label{font:700 16px Arial,Helvetica,sans-serif;fill:#172033}
        .small{font:400 13px Arial,Helvetica,sans-serif;fill:#526071}
        .tiny{font:400 12px Arial,Helvetica,sans-serif;fill:#526071}
        .arrow{fill:none;stroke:#334155;stroke-width:4;stroke-linecap:round;stroke-linejoin:round;marker-end:url(#arrow)}
        .flow-blue{stroke:#2563eb}.flow-red{stroke:#dc2626}.flow-green{stroke:#0f766e}.flow-orange{stroke:#ea580c}.flow-cyan{stroke:#0891b2}.flow-purple{stroke:#7c3aed}.flow-slate{stroke:#334155}.flow-gray{stroke:#64748b}
      </style>
    </defs>
<rect width="1280" height="760" rx="0" fill="#f8fafc"/>
<text x="48" y="58" class="title">Startmotor</text>
<text x="48" y="88" class="subtitle">Startkrets med nøkkel, relé, solenoid og motor</text>
<line x1="48" y1="126" x2="1232" y2="126" stroke="#e2e8f0" stroke-width="1"/>
<line x1="48" y1="324" x2="1232" y2="324" stroke="#e2e8f0" stroke-width="1"/>
<line x1="48" y1="522" x2="1232" y2="522" stroke="#e2e8f0" stroke-width="1"/>
<rect x="80" y="330" width="160" height="90" rx="12" fill="#e2e8f0" stroke="#334155" stroke-width="2.5" filter="url(#shadow)"/>
<text x="160.0" y="367.0" text-anchor="middle" class="label">Startbatteri</text>
<text x="160.0" y="395.0" text-anchor="middle" class="small">amber</text>
<rect x="300" y="185" width="150" height="80" rx="12" fill="#e2e8f0" stroke="#334155" stroke-width="2.5" filter="url(#shadow)"/>
<text x="375.0" y="217.0" text-anchor="middle" class="label">Startbryter</text>
<text x="375.0" y="245.0" text-anchor="middle" class="small">cyan</text>
<rect x="510" y="205" width="145" height="80" rx="12" fill="#e2e8f0" stroke="#334155" stroke-width="2.5" filter="url(#shadow)"/>
<text x="582.5" y="237.0" text-anchor="middle" class="label">Startrelé</text>
<text x="582.5" y="265.0" text-anchor="middle" class="small">slate</text>
<rect x="720" y="250" width="150" height="90" rx="12" fill="#e2e8f0" stroke="#334155" stroke-width="2.5" filter="url(#shadow)"/>
<text x="795.0" y="287.0" text-anchor="middle" class="label">Solenoid</text>
<text x="795.0" y="315.0" text-anchor="middle" class="small">red</text>
<circle cx="1015.0" cy="307.5" r="57.5" fill="#e2e8f0" stroke="#334155" stroke-width="2.5" filter="url(#shadow)"/>
<text x="1015.0" y="299.5" text-anchor="middle" class="label">Startmotor</text>
<text x="1015.0" y="327.5" text-anchor="middle" class="small">red</text>
<rect x="930" y="445" width="170" height="90" rx="12" fill="#e2e8f0" stroke="#334155" stroke-width="2.5" filter="url(#shadow)"/>
<text x="1015.0" y="482.0" text-anchor="middle" class="label">Svinghjul</text>
<text x="1015.0" y="510.0" text-anchor="middle" class="small">slate</text>
<rect x="300" y="485" width="160" height="75" rx="12" fill="#e2e8f0" stroke="#334155" stroke-width="2.5" filter="url(#shadow)"/>
<text x="380.0" y="514.5" text-anchor="middle" class="label">Jord / retur</text>
<text x="380.0" y="542.5" text-anchor="middle" class="small">gray</text>
<line x1="160.0" y1="375.0" x2="375.0" y2="225.0" class="arrow flow-orange"/>
<rect x="197.5" y="282.0" width="140" height="25" rx="12" fill="white" stroke="#e2e8f0"/>
<text x="267.5" y="300.0" text-anchor="middle" class="tiny">styrestrøm</text>
<line x1="375.0" y1="225.0" x2="582.5" y2="245.0" class="arrow flow-cyan"/>
<rect x="408.75" y="217.0" width="140" height="25" rx="12" fill="white" stroke="#e2e8f0"/>
<text x="478.75" y="235.0" text-anchor="middle" class="tiny">startsignal</text>
<line x1="582.5" y1="245.0" x2="795.0" y2="295.0" class="arrow flow-cyan"/>
<rect x="618.75" y="252.0" width="140" height="25" rx="12" fill="white" stroke="#e2e8f0"/>
<text x="688.75" y="270.0" text-anchor="middle" class="tiny">aktivering</text>
<line x1="160.0" y1="375.0" x2="795.0" y2="295.0" class="arrow flow-orange"/>
<rect x="407.5" y="317.0" width="140" height="25" rx="12" fill="white" stroke="#e2e8f0"/>
<text x="477.5" y="335.0" text-anchor="middle" class="tiny">hovedstrøm</text>
<line x1="795.0" y1="295.0" x2="1015.0" y2="307.5" class="arrow flow-red"/>
<rect x="835.0" y="283.25" width="140" height="25" rx="12" fill="white" stroke="#e2e8f0"/>
<text x="905.0" y="301.25" text-anchor="middle" class="tiny">strøm</text>
<line x1="1015.0" y1="307.5" x2="1015.0" y2="490.0" class="arrow flow-red"/>
<rect x="945.0" y="380.75" width="140" height="25" rx="12" fill="white" stroke="#e2e8f0"/>
<text x="1015.0" y="398.75" text-anchor="middle" class="tiny">inngrep</text>
<line x1="1015.0" y1="307.5" x2="380.0" y2="522.5" class="arrow flow-slate"/>
<rect x="627.5" y="397.0" width="140" height="25" rx="12" fill="white" stroke="#e2e8f0"/>
<text x="697.5" y="415.0" text-anchor="middle" class="tiny">retur</text>
<line x1="380.0" y1="522.5" x2="160.0" y2="375.0" class="arrow flow-slate"/>
<rect x="200.0" y="430.75" width="140" height="25" rx="12" fill="white" stroke="#e2e8f0"/>
<text x="270.0" y="448.75" text-anchor="middle" class="tiny">-</text>
<rect x="48" y="690" width="1184" height="42" rx="10" fill="#fff" stroke="#e2e8f0"/>
<text x="64" y="716" class="small">Klikkelyd uten omdreining peker ofte mot spenning, kabel, solenoid, jord eller mekanisk låsing.</text>
</svg>
