<svg xmlns="http://www.w3.org/2000/svg" width="1280" height="760" viewBox="0 0 1280 760" role="img" aria-labelledby="title desc">
<title id="title">Sjøvannssystem</title>
<desc id="desc">Sjøvannskrets fra inntak til varmeveksler og eksosbend</desc>

    <defs>
      <marker id="arrow" viewBox="0 0 10 10" refX="9" refY="5" markerWidth="8" markerHeight="8" orient="auto-start-reverse">
        <path d="M 0 0 L 10 5 L 0 10 z" fill="#334155"/>
      </marker>
      <filter id="shadow" x="-20%" y="-20%" width="140%" height="140%">
        <feDropShadow dx="0" dy="4" stdDeviation="5" flood-color="#0f172a" flood-opacity="0.12"/>
      </filter>
      <style>
        .title{font:700 34px Arial,Helvetica,sans-serif;fill:#172033}
        .subtitle{font:400 17px Arial,Helvetica,sans-serif;fill:#526071}
        .label{font:700 16px Arial,Helvetica,sans-serif;fill:#172033}
        .small{font:400 13px Arial,Helvetica,sans-serif;fill:#526071}
        .tiny{font:400 12px Arial,Helvetica,sans-serif;fill:#526071}
        .arrow{fill:none;stroke:#334155;stroke-width:4;stroke-linecap:round;stroke-linejoin:round;marker-end:url(#arrow)}
        .flow-blue{stroke:#2563eb}.flow-red{stroke:#dc2626}.flow-green{stroke:#0f766e}.flow-orange{stroke:#ea580c}.flow-cyan{stroke:#0891b2}.flow-purple{stroke:#7c3aed}.flow-slate{stroke:#334155}.flow-gray{stroke:#64748b}
      </style>
    </defs>
<rect width="1280" height="760" rx="0" fill="#f8fafc"/>
<text x="48" y="58" class="title">Sjøvannssystem</text>
<text x="48" y="88" class="subtitle">Sjøvannskrets fra inntak til varmeveksler og eksosbend</text>
<line x1="48" y1="126" x2="1232" y2="126" stroke="#e2e8f0" stroke-width="1"/>
<line x1="48" y1="324" x2="1232" y2="324" stroke="#e2e8f0" stroke-width="1"/>
<line x1="48" y1="522" x2="1232" y2="522" stroke="#e2e8f0" stroke-width="1"/>
<rect x="80" y="360" width="150" height="90" rx="12" fill="#e2e8f0" stroke="#334155" stroke-width="2.5" filter="url(#shadow)"/>
<text x="155.0" y="397.0" text-anchor="middle" class="label">Bunnventil</text>
<text x="155.0" y="425.0" text-anchor="middle" class="small">cyan</text>
<path d="M290,363 C290,339 440,339 440,363 L440,437 C440,461 290,461 290,437 Z" fill="#e2e8f0" stroke="#334155" stroke-width="2.5" filter="url(#shadow)"/>
<ellipse cx="365.0" cy="363" rx="75.0" ry="18" fill="#e2e8f0" stroke="#334155" stroke-width="2.5"/>
<text x="365.0" y="392.0" text-anchor="middle" class="label">Sjøvannsfilter</text>
<text x="365.0" y="420.0" text-anchor="middle" class="small">cyan</text>
<circle cx="580.0" cy="400.0" r="50.0" fill="#e2e8f0" stroke="#334155" stroke-width="2.5" filter="url(#shadow)"/>
<text x="580.0" y="392.0" text-anchor="middle" class="label">Impellerpumpe</text>
<text x="580.0" y="420.0" text-anchor="middle" class="small">cyan</text>
<rect x="720" y="325" width="170" height="125" rx="12" fill="#e2e8f0" stroke="#334155" stroke-width="2.5" filter="url(#shadow)"/>
<text x="805.0" y="379.5" text-anchor="middle" class="label">Varmeveksler</text>
<text x="805.0" y="407.5" text-anchor="middle" class="small">blue</text>
<rect x="930" y="325" width="170" height="125" rx="12" fill="#e2e8f0" stroke="#334155" stroke-width="2.5" filter="url(#shadow)"/>
<text x="1015.0" y="379.5" text-anchor="middle" class="label">Oljekjølere</text>
<text x="1015.0" y="407.5" text-anchor="middle" class="small">blue</text>
<rect x="930" y="510" width="170" height="90" rx="12" fill="#e2e8f0" stroke="#334155" stroke-width="2.5" filter="url(#shadow)"/>
<text x="1015.0" y="547.0" text-anchor="middle" class="label">Eksosbend</text>
<text x="1015.0" y="575.0" text-anchor="middle" class="small">red</text>
<rect x="1135" y="520" width="95" height="70" rx="12" fill="#e2e8f0" stroke="#334155" stroke-width="2.5" filter="url(#shadow)"/>
<text x="1182.5" y="547.0" text-anchor="middle" class="label">Over bord</text>
<text x="1182.5" y="575.0" text-anchor="middle" class="small">red</text>
<line x1="155.0" y1="405.0" x2="365.0" y2="400.0" class="arrow flow-cyan"/>
<rect x="190.0" y="384.5" width="140" height="25" rx="12" fill="white" stroke="#e2e8f0"/>
<text x="260.0" y="402.5" text-anchor="middle" class="tiny">sjøvann</text>
<line x1="365.0" y1="400.0" x2="580.0" y2="400.0" class="arrow flow-cyan"/>
<rect x="402.5" y="382.0" width="140" height="25" rx="12" fill="white" stroke="#e2e8f0"/>
<text x="472.5" y="400.0" text-anchor="middle" class="tiny">filtrert</text>
<line x1="580.0" y1="400.0" x2="805.0" y2="387.5" class="arrow flow-cyan"/>
<rect x="622.5" y="375.75" width="140" height="25" rx="12" fill="white" stroke="#e2e8f0"/>
<text x="692.5" y="393.75" text-anchor="middle" class="tiny">flow</text>
<line x1="805.0" y1="387.5" x2="1015.0" y2="387.5" class="arrow flow-blue"/>
<rect x="840.0" y="369.5" width="140" height="25" rx="12" fill="white" stroke="#e2e8f0"/>
<text x="910.0" y="387.5" text-anchor="middle" class="tiny">videre</text>
<line x1="1015.0" y1="387.5" x2="1015.0" y2="555.0" class="arrow flow-blue"/>
<rect x="945.0" y="453.25" width="140" height="25" rx="12" fill="white" stroke="#e2e8f0"/>
<text x="1015.0" y="471.25" text-anchor="middle" class="tiny">ut</text>
<line x1="1015.0" y1="555.0" x2="1182.5" y2="555.0" class="arrow flow-red"/>
<rect x="1028.75" y="537.0" width="140" height="25" rx="12" fill="white" stroke="#e2e8f0"/>
<text x="1098.75" y="555.0" text-anchor="middle" class="tiny">eksos/vann</text>
<rect x="48" y="690" width="1184" height="42" rx="10" fill="#fff" stroke="#e2e8f0"/>
<text x="64" y="716" class="small">Svikt i sjøvannsflow gir rask overoppheting; sjekk bunnventil, filter, impeller, lokk og slanger.</text>
</svg>
