<svg xmlns="http://www.w3.org/2000/svg" width="1280" height="760" viewBox="0 0 1280 760" role="img" aria-labelledby="title desc">
<title id="title">Batteri og lading</title>
<desc id="desc">Dynamo, regulator, batteribank og lastfordeling</desc>

    <defs>
      <marker id="arrow" viewBox="0 0 10 10" refX="9" refY="5" markerWidth="8" markerHeight="8" orient="auto-start-reverse">
        <path d="M 0 0 L 10 5 L 0 10 z" fill="#334155"/>
      </marker>
      <filter id="shadow" x="-20%" y="-20%" width="140%" height="140%">
        <feDropShadow dx="0" dy="4" stdDeviation="5" flood-color="#0f172a" flood-opacity="0.12"/>
      </filter>
      <style>
        .title{font:700 34px Arial,Helvetica,sans-serif;fill:#172033}
        .subtitle{font:400 17px Arial,Helvetica,sans-serif;fill:#526071}
        .label{font:700 16px Arial,Helvetica,sans-serif;fill:#172033}
        .small{font:400 13px Arial,Helvetica,sans-serif;fill:#526071}
        .tiny{font:400 12px Arial,Helvetica,sans-serif;fill:#526071}
        .arrow{fill:none;stroke:#334155;stroke-width:4;stroke-linecap:round;stroke-linejoin:round;marker-end:url(#arrow)}
        .flow-blue{stroke:#2563eb}.flow-red{stroke:#dc2626}.flow-green{stroke:#0f766e}.flow-orange{stroke:#ea580c}.flow-cyan{stroke:#0891b2}.flow-purple{stroke:#7c3aed}.flow-slate{stroke:#334155}.flow-gray{stroke:#64748b}
      </style>
    </defs>
<rect width="1280" height="760" rx="0" fill="#f8fafc"/>
<text x="48" y="58" class="title">Batteri og lading</text>
<text x="48" y="88" class="subtitle">Dynamo, regulator, batteribank og lastfordeling</text>
<line x1="48" y1="126" x2="1232" y2="126" stroke="#e2e8f0" stroke-width="1"/>
<line x1="48" y1="324" x2="1232" y2="324" stroke="#e2e8f0" stroke-width="1"/>
<line x1="48" y1="522" x2="1232" y2="522" stroke="#e2e8f0" stroke-width="1"/>
<circle cx="200.0" cy="287.5" r="57.5" fill="#e2e8f0" stroke="#334155" stroke-width="2.5" filter="url(#shadow)"/>
<text x="200.0" y="279.5" text-anchor="middle" class="label">Dynamo</text>
<text x="200.0" y="307.5" text-anchor="middle" class="small">blue</text>
<rect x="350" y="250" width="145" height="80" rx="12" fill="#e2e8f0" stroke="#334155" stroke-width="2.5" filter="url(#shadow)"/>
<text x="422.5" y="282.0" text-anchor="middle" class="label">Regulator</text>
<text x="422.5" y="310.0" text-anchor="middle" class="small">purple</text>
<rect x="560" y="240" width="165" height="100" rx="12" fill="#e2e8f0" stroke="#334155" stroke-width="2.5" filter="url(#shadow)"/>
<text x="642.5" y="282.0" text-anchor="middle" class="label">Ladefordeler</text>
<text x="642.5" y="310.0" text-anchor="middle" class="small">slate</text>
<rect x="790" y="170" width="160" height="95" rx="12" fill="#e2e8f0" stroke="#334155" stroke-width="2.5" filter="url(#shadow)"/>
<text x="870.0" y="209.5" text-anchor="middle" class="label">Startbatteri</text>
<text x="870.0" y="237.5" text-anchor="middle" class="small">amber</text>
<rect x="790" y="340" width="160" height="95" rx="12" fill="#e2e8f0" stroke="#334155" stroke-width="2.5" filter="url(#shadow)"/>
<text x="870.0" y="379.5" text-anchor="middle" class="label">Forbruksbatteri</text>
<text x="870.0" y="407.5" text-anchor="middle" class="small">amber</text>
<rect x="1040" y="170" width="150" height="95" rx="12" fill="#e2e8f0" stroke="#334155" stroke-width="2.5" filter="url(#shadow)"/>
<text x="1115.0" y="209.5" text-anchor="middle" class="label">Startmotor</text>
<text x="1115.0" y="237.5" text-anchor="middle" class="small">red</text>
<rect x="1040" y="340" width="150" height="95" rx="12" fill="#e2e8f0" stroke="#334155" stroke-width="2.5" filter="url(#shadow)"/>
<text x="1115.0" y="379.5" text-anchor="middle" class="label">Forbrukere</text>
<text x="1115.0" y="407.5" text-anchor="middle" class="small">blue</text>
<line x1="200.0" y1="287.5" x2="422.5" y2="290.0" class="arrow flow-purple"/>
<rect x="241.25" y="270.75" width="140" height="25" rx="12" fill="white" stroke="#e2e8f0"/>
<text x="311.25" y="288.75" text-anchor="middle" class="tiny">felt</text>
<line x1="200.0" y1="287.5" x2="642.5" y2="290.0" class="arrow flow-blue"/>
<rect x="351.25" y="270.75" width="140" height="25" rx="12" fill="white" stroke="#e2e8f0"/>
<text x="421.25" y="288.75" text-anchor="middle" class="tiny">ladestrøm</text>
<line x1="422.5" y1="290.0" x2="200.0" y2="287.5" class="arrow flow-purple"/>
<rect x="241.25" y="270.75" width="140" height="25" rx="12" fill="white" stroke="#e2e8f0"/>
<text x="311.25" y="288.75" text-anchor="middle" class="tiny">styring</text>
<line x1="642.5" y1="290.0" x2="870.0" y2="217.5" class="arrow flow-blue"/>
<rect x="686.25" y="235.75" width="140" height="25" rx="12" fill="white" stroke="#e2e8f0"/>
<text x="756.25" y="253.75" text-anchor="middle" class="tiny">lading</text>
<line x1="642.5" y1="290.0" x2="870.0" y2="387.5" class="arrow flow-blue"/>
<rect x="686.25" y="320.75" width="140" height="25" rx="12" fill="white" stroke="#e2e8f0"/>
<text x="756.25" y="338.75" text-anchor="middle" class="tiny">lading</text>
<line x1="870.0" y1="217.5" x2="1115.0" y2="217.5" class="arrow flow-red"/>
<rect x="922.5" y="199.5" width="140" height="25" rx="12" fill="white" stroke="#e2e8f0"/>
<text x="992.5" y="217.5" text-anchor="middle" class="tiny">start</text>
<line x1="870.0" y1="387.5" x2="1115.0" y2="387.5" class="arrow flow-blue"/>
<rect x="922.5" y="369.5" width="140" height="25" rx="12" fill="white" stroke="#e2e8f0"/>
<text x="992.5" y="387.5" text-anchor="middle" class="tiny">forbruk</text>
<rect x="48" y="690" width="1184" height="42" rx="10" fill="#fff" stroke="#e2e8f0"/>
<text x="64" y="716" class="small">Mål hvilespenning, ladespenning og spenningsfall før dynamo eller batteri dømmes defekt.</text>
</svg>
