<svg xmlns="http://www.w3.org/2000/svg" width="1280" height="760" viewBox="0 0 1280 760" role="img" aria-labelledby="title desc">
<title id="title">Drivstoffsystem</title>
<desc id="desc">Fra tank til filter, matepumpe, høytrykk og retur</desc>

    <defs>
      <marker id="arrow" viewBox="0 0 10 10" refX="9" refY="5" markerWidth="8" markerHeight="8" orient="auto-start-reverse">
        <path d="M 0 0 L 10 5 L 0 10 z" fill="#334155"/>
      </marker>
      <filter id="shadow" x="-20%" y="-20%" width="140%" height="140%">
        <feDropShadow dx="0" dy="4" stdDeviation="5" flood-color="#0f172a" flood-opacity="0.12"/>
      </filter>
      <style>
        .title{font:700 34px Arial,Helvetica,sans-serif;fill:#172033}
        .subtitle{font:400 17px Arial,Helvetica,sans-serif;fill:#526071}
        .label{font:700 16px Arial,Helvetica,sans-serif;fill:#172033}
        .small{font:400 13px Arial,Helvetica,sans-serif;fill:#526071}
        .tiny{font:400 12px Arial,Helvetica,sans-serif;fill:#526071}
        .arrow{fill:none;stroke:#334155;stroke-width:4;stroke-linecap:round;stroke-linejoin:round;marker-end:url(#arrow)}
        .flow-blue{stroke:#2563eb}.flow-red{stroke:#dc2626}.flow-green{stroke:#0f766e}.flow-orange{stroke:#ea580c}.flow-cyan{stroke:#0891b2}.flow-purple{stroke:#7c3aed}.flow-slate{stroke:#334155}.flow-gray{stroke:#64748b}
      </style>
    </defs>
<rect width="1280" height="760" rx="0" fill="#f8fafc"/>
<text x="48" y="58" class="title">Drivstoffsystem</text>
<text x="48" y="88" class="subtitle">Fra tank til filter, matepumpe, høytrykk og retur</text>
<line x1="48" y1="126" x2="1232" y2="126" stroke="#e2e8f0" stroke-width="1"/>
<line x1="48" y1="324" x2="1232" y2="324" stroke="#e2e8f0" stroke-width="1"/>
<line x1="48" y1="522" x2="1232" y2="522" stroke="#e2e8f0" stroke-width="1"/>
<path d="M70,378 C70,354 235,354 235,378 L235,447 C235,471 70,471 70,447 Z" fill="#e2e8f0" stroke="#334155" stroke-width="2.5" filter="url(#shadow)"/>
<ellipse cx="152.5" cy="378" rx="82.5" ry="18" fill="#e2e8f0" stroke="#334155" stroke-width="2.5"/>
<text x="152.5" y="404.5" text-anchor="middle" class="label">Dieseltank</text>
<text x="152.5" y="432.5" text-anchor="middle" class="small">green</text>
<path d="M300,353 C300,329 460,329 460,353 L460,427 C460,451 300,451 300,427 Z" fill="#e2e8f0" stroke="#334155" stroke-width="2.5" filter="url(#shadow)"/>
<ellipse cx="380.0" cy="353" rx="80.0" ry="18" fill="#e2e8f0" stroke="#334155" stroke-width="2.5"/>
<text x="380.0" y="382.0" text-anchor="middle" class="label">Vannutskiller</text>
<text x="380.0" y="410.0" text-anchor="middle" class="small">green</text>
<path d="M510,353 C510,329 665,329 665,353 L665,427 C665,451 510,451 510,427 Z" fill="#e2e8f0" stroke="#334155" stroke-width="2.5" filter="url(#shadow)"/>
<ellipse cx="587.5" cy="353" rx="77.5" ry="18" fill="#e2e8f0" stroke="#334155" stroke-width="2.5"/>
<text x="587.5" y="382.0" text-anchor="middle" class="label">Forfilter</text>
<text x="587.5" y="410.0" text-anchor="middle" class="small">green</text>
<circle cx="792.5" cy="392.5" r="47.5" fill="#e2e8f0" stroke="#334155" stroke-width="2.5" filter="url(#shadow)"/>
<text x="792.5" y="384.5" text-anchor="middle" class="label">Matepumpe</text>
<text x="792.5" y="412.5" text-anchor="middle" class="small">green</text>
<rect x="915" y="325" width="155" height="115" rx="12" fill="#e2e8f0" stroke="#334155" stroke-width="2.5" filter="url(#shadow)"/>
<text x="992.5" y="374.5" text-anchor="middle" class="label">Høytrykkspumpe</text>
<text x="992.5" y="402.5" text-anchor="middle" class="small">red</text>
<rect x="900" y="160" width="190" height="100" rx="12" fill="#e2e8f0" stroke="#334155" stroke-width="2.5" filter="url(#shadow)"/>
<text x="995.0" y="202.0" text-anchor="middle" class="label">Injektorer</text>
<text x="995.0" y="230.0" text-anchor="middle" class="small">red</text>
<rect x="580" y="165" width="170" height="80" rx="12" fill="#e2e8f0" stroke="#334155" stroke-width="2.5" filter="url(#shadow)"/>
<text x="665.0" y="197.0" text-anchor="middle" class="label">Returledning</text>
<text x="665.0" y="225.0" text-anchor="middle" class="small">gray</text>
<line x1="152.5" y1="412.5" x2="380.0" y2="390.0" class="arrow flow-green"/>
<rect x="196.25" y="383.25" width="140" height="25" rx="12" fill="white" stroke="#e2e8f0"/>
<text x="266.25" y="401.25" text-anchor="middle" class="tiny">diesel</text>
<line x1="380.0" y1="390.0" x2="587.5" y2="390.0" class="arrow flow-green"/>
<rect x="413.75" y="372.0" width="140" height="25" rx="12" fill="white" stroke="#e2e8f0"/>
<text x="483.75" y="390.0" text-anchor="middle" class="tiny">renset</text>
<line x1="587.5" y1="390.0" x2="792.5" y2="392.5" class="arrow flow-green"/>
<rect x="620.0" y="373.25" width="140" height="25" rx="12" fill="white" stroke="#e2e8f0"/>
<text x="690.0" y="391.25" text-anchor="middle" class="tiny">lavtrykk</text>
<line x1="792.5" y1="392.5" x2="992.5" y2="382.5" class="arrow flow-green"/>
<rect x="822.5" y="369.5" width="140" height="25" rx="12" fill="white" stroke="#e2e8f0"/>
<text x="892.5" y="387.5" text-anchor="middle" class="tiny">tilførsel</text>
<line x1="992.5" y1="382.5" x2="995.0" y2="210.0" class="arrow flow-red"/>
<rect x="923.75" y="278.25" width="140" height="25" rx="12" fill="white" stroke="#e2e8f0"/>
<text x="993.75" y="296.25" text-anchor="middle" class="tiny">høytrykk</text>
<line x1="995.0" y1="210.0" x2="665.0" y2="205.0" class="arrow flow-orange"/>
<rect x="760.0" y="189.5" width="140" height="25" rx="12" fill="white" stroke="#e2e8f0"/>
<text x="830.0" y="207.5" text-anchor="middle" class="tiny">lekkretur</text>
<line x1="665.0" y1="205.0" x2="152.5" y2="412.5" class="arrow flow-orange"/>
<rect x="338.75" y="290.75" width="140" height="25" rx="12" fill="white" stroke="#e2e8f0"/>
<text x="408.75" y="308.75" text-anchor="middle" class="tiny">retur</text>
<rect x="48" y="690" width="1184" height="42" rx="10" fill="#fff" stroke="#e2e8f0"/>
<text x="64" y="716" class="small">Luft, vann, tett filter eller feil retur kan gi samme kundesymptom som injektorfeil.</text>
</svg>
