<svg xmlns="http://www.w3.org/2000/svg" width="1280" height="760" viewBox="0 0 1280 760" role="img" aria-labelledby="title desc">
<title id="title">Common rail</title>
<desc id="desc">Elektronisk styrt høytrykksinnsprøytning</desc>

    <defs>
      <marker id="arrow" viewBox="0 0 10 10" refX="9" refY="5" markerWidth="8" markerHeight="8" orient="auto-start-reverse">
        <path d="M 0 0 L 10 5 L 0 10 z" fill="#334155"/>
      </marker>
      <filter id="shadow" x="-20%" y="-20%" width="140%" height="140%">
        <feDropShadow dx="0" dy="4" stdDeviation="5" flood-color="#0f172a" flood-opacity="0.12"/>
      </filter>
      <style>
        .title{font:700 34px Arial,Helvetica,sans-serif;fill:#172033}
        .subtitle{font:400 17px Arial,Helvetica,sans-serif;fill:#526071}
        .label{font:700 16px Arial,Helvetica,sans-serif;fill:#172033}
        .small{font:400 13px Arial,Helvetica,sans-serif;fill:#526071}
        .tiny{font:400 12px Arial,Helvetica,sans-serif;fill:#526071}
        .arrow{fill:none;stroke:#334155;stroke-width:4;stroke-linecap:round;stroke-linejoin:round;marker-end:url(#arrow)}
        .flow-blue{stroke:#2563eb}.flow-red{stroke:#dc2626}.flow-green{stroke:#0f766e}.flow-orange{stroke:#ea580c}.flow-cyan{stroke:#0891b2}.flow-purple{stroke:#7c3aed}.flow-slate{stroke:#334155}.flow-gray{stroke:#64748b}
      </style>
    </defs>
<rect width="1280" height="760" rx="0" fill="#f8fafc"/>
<text x="48" y="58" class="title">Common rail</text>
<text x="48" y="88" class="subtitle">Elektronisk styrt høytrykksinnsprøytning</text>
<line x1="48" y1="126" x2="1232" y2="126" stroke="#e2e8f0" stroke-width="1"/>
<line x1="48" y1="324" x2="1232" y2="324" stroke="#e2e8f0" stroke-width="1"/>
<line x1="48" y1="522" x2="1232" y2="522" stroke="#e2e8f0" stroke-width="1"/>
<rect x="70" y="450" width="145" height="75" rx="12" fill="#e2e8f0" stroke="#334155" stroke-width="2.5" filter="url(#shadow)"/>
<text x="142.5" y="479.5" text-anchor="middle" class="label">Tank</text>
<text x="142.5" y="507.5" text-anchor="middle" class="small">green</text>
<path d="M280,448 C280,424 425,424 425,448 L425,507 C425,531 280,531 280,507 Z" fill="#e2e8f0" stroke="#334155" stroke-width="2.5" filter="url(#shadow)"/>
<ellipse cx="352.5" cy="448" rx="72.5" ry="18" fill="#e2e8f0" stroke="#334155" stroke-width="2.5"/>
<text x="352.5" y="469.5" text-anchor="middle" class="label">Filter</text>
<text x="352.5" y="497.5" text-anchor="middle" class="small">green</text>
<rect x="485" y="420" width="155" height="105" rx="12" fill="#e2e8f0" stroke="#334155" stroke-width="2.5" filter="url(#shadow)"/>
<text x="562.5" y="464.5" text-anchor="middle" class="label">Høytrykkspumpe</text>
<text x="562.5" y="492.5" text-anchor="middle" class="small">red</text>
<rect x="720" y="285" width="250" height="70" rx="12" fill="#e2e8f0" stroke="#334155" stroke-width="2.5" filter="url(#shadow)"/>
<text x="845.0" y="312.0" text-anchor="middle" class="label">Common rail</text>
<text x="845.0" y="340.0" text-anchor="middle" class="small">red</text>
<rect x="720" y="150" width="70" height="82" rx="12" fill="#e2e8f0" stroke="#334155" stroke-width="2.5" filter="url(#shadow)"/>
<text x="755.0" y="183.0" text-anchor="middle" class="label">Inj. 1</text>
<text x="755.0" y="211.0" text-anchor="middle" class="small">red</text>
<rect x="805" y="150" width="70" height="82" rx="12" fill="#e2e8f0" stroke="#334155" stroke-width="2.5" filter="url(#shadow)"/>
<text x="840.0" y="183.0" text-anchor="middle" class="label">Inj. 2</text>
<text x="840.0" y="211.0" text-anchor="middle" class="small">red</text>
<rect x="890" y="150" width="70" height="82" rx="12" fill="#e2e8f0" stroke="#334155" stroke-width="2.5" filter="url(#shadow)"/>
<text x="925.0" y="183.0" text-anchor="middle" class="label">Inj. 3</text>
<text x="925.0" y="211.0" text-anchor="middle" class="small">red</text>
<rect x="1010" y="390" width="155" height="100" rx="12" fill="#e2e8f0" stroke="#334155" stroke-width="2.5" filter="url(#shadow)"/>
<text x="1087.5" y="432.0" text-anchor="middle" class="label">ECU</text>
<text x="1087.5" y="460.0" text-anchor="middle" class="small">purple</text>
<rect x="1010" y="190" width="155" height="90" rx="12" fill="#e2e8f0" stroke="#334155" stroke-width="2.5" filter="url(#shadow)"/>
<text x="1087.5" y="227.0" text-anchor="middle" class="label">Sensorer</text>
<text x="1087.5" y="255.0" text-anchor="middle" class="small">cyan</text>
<line x1="142.5" y1="487.5" x2="352.5" y2="477.5" class="arrow flow-green"/>
<rect x="177.5" y="464.5" width="140" height="25" rx="12" fill="white" stroke="#e2e8f0"/>
<text x="247.5" y="482.5" text-anchor="middle" class="tiny">lavtrykk</text>
<line x1="352.5" y1="477.5" x2="562.5" y2="472.5" class="arrow flow-green"/>
<rect x="387.5" y="457.0" width="140" height="25" rx="12" fill="white" stroke="#e2e8f0"/>
<text x="457.5" y="475.0" text-anchor="middle" class="tiny">tilførsel</text>
<line x1="562.5" y1="472.5" x2="845.0" y2="320.0" class="arrow flow-red"/>
<rect x="633.75" y="378.25" width="140" height="25" rx="12" fill="white" stroke="#e2e8f0"/>
<text x="703.75" y="396.25" text-anchor="middle" class="tiny">høytrykk</text>
<line x1="845.0" y1="320.0" x2="755.0" y2="191.0" class="arrow flow-red"/>
<line x1="845.0" y1="320.0" x2="840.0" y2="191.0" class="arrow flow-red"/>
<line x1="845.0" y1="320.0" x2="925.0" y2="191.0" class="arrow flow-red"/>
<line x1="1087.5" y1="235.0" x2="1087.5" y2="440.0" class="arrow flow-purple"/>
<rect x="1017.5" y="319.5" width="140" height="25" rx="12" fill="white" stroke="#e2e8f0"/>
<text x="1087.5" y="337.5" text-anchor="middle" class="tiny">signal</text>
<line x1="1087.5" y1="440.0" x2="562.5" y2="472.5" class="arrow flow-purple"/>
<rect x="755.0" y="438.25" width="140" height="25" rx="12" fill="white" stroke="#e2e8f0"/>
<text x="825.0" y="456.25" text-anchor="middle" class="tiny">regulering</text>
<line x1="1087.5" y1="440.0" x2="840.0" y2="191.0" class="arrow flow-purple"/>
<rect x="893.75" y="297.5" width="140" height="25" rx="12" fill="white" stroke="#e2e8f0"/>
<text x="963.75" y="315.5" text-anchor="middle" class="tiny">puls</text>
<rect x="48" y="690" width="1184" height="42" rx="10" fill="#fff" stroke="#e2e8f0"/>
<text x="64" y="716" class="small">Ikke bytt common rail-komponenter uten sikker identifikasjon, renhetskontroll og produsentdata.</text>
</svg>
