<svg xmlns="http://www.w3.org/2000/svg" width="1280" height="760" viewBox="0 0 1280 760" role="img" aria-labelledby="title desc">
<title id="title">Smøresystem</title>
<desc id="desc">Oljeflyt fra sump via pumpe, filter og kjølere til lagerpunkter</desc>

    <defs>
      <marker id="arrow" viewBox="0 0 10 10" refX="9" refY="5" markerWidth="8" markerHeight="8" orient="auto-start-reverse">
        <path d="M 0 0 L 10 5 L 0 10 z" fill="#334155"/>
      </marker>
      <filter id="shadow" x="-20%" y="-20%" width="140%" height="140%">
        <feDropShadow dx="0" dy="4" stdDeviation="5" flood-color="#0f172a" flood-opacity="0.12"/>
      </filter>
      <style>
        .title{font:700 34px Arial,Helvetica,sans-serif;fill:#172033}
        .subtitle{font:400 17px Arial,Helvetica,sans-serif;fill:#526071}
        .label{font:700 16px Arial,Helvetica,sans-serif;fill:#172033}
        .small{font:400 13px Arial,Helvetica,sans-serif;fill:#526071}
        .tiny{font:400 12px Arial,Helvetica,sans-serif;fill:#526071}
        .arrow{fill:none;stroke:#334155;stroke-width:4;stroke-linecap:round;stroke-linejoin:round;marker-end:url(#arrow)}
        .flow-blue{stroke:#2563eb}.flow-red{stroke:#dc2626}.flow-green{stroke:#0f766e}.flow-orange{stroke:#ea580c}.flow-cyan{stroke:#0891b2}.flow-purple{stroke:#7c3aed}.flow-slate{stroke:#334155}.flow-gray{stroke:#64748b}
      </style>
    </defs>
<rect width="1280" height="760" rx="0" fill="#f8fafc"/>
<text x="48" y="58" class="title">Smøresystem</text>
<text x="48" y="88" class="subtitle">Oljeflyt fra sump via pumpe, filter og kjølere til lagerpunkter</text>
<line x1="48" y1="126" x2="1232" y2="126" stroke="#e2e8f0" stroke-width="1"/>
<line x1="48" y1="324" x2="1232" y2="324" stroke="#e2e8f0" stroke-width="1"/>
<line x1="48" y1="522" x2="1232" y2="522" stroke="#e2e8f0" stroke-width="1"/>
<rect x="90" y="470" width="160" height="80" rx="12" fill="#e2e8f0" stroke="#334155" stroke-width="2.5" filter="url(#shadow)"/>
<text x="170.0" y="502.0" text-anchor="middle" class="label">Bunnpanne / sump</text>
<text x="170.0" y="530.0" text-anchor="middle" class="small">amber</text>
<rect x="310" y="470" width="135" height="80" rx="12" fill="#e2e8f0" stroke="#334155" stroke-width="2.5" filter="url(#shadow)"/>
<text x="377.5" y="502.0" text-anchor="middle" class="label">Sugerør</text>
<text x="377.5" y="530.0" text-anchor="middle" class="small">amber</text>
<circle cx="575.0" cy="490.0" r="50.0" fill="#e2e8f0" stroke="#334155" stroke-width="2.5" filter="url(#shadow)"/>
<text x="575.0" y="482.0" text-anchor="middle" class="label">Oljepumpe</text>
<text x="575.0" y="510.0" text-anchor="middle" class="small">amber</text>
<path d="M700,448 C700,424 845,424 845,448 L845,517 C845,541 700,541 700,517 Z" fill="#e2e8f0" stroke="#334155" stroke-width="2.5" filter="url(#shadow)"/>
<ellipse cx="772.5" cy="448" rx="72.5" ry="18" fill="#e2e8f0" stroke="#334155" stroke-width="2.5"/>
<text x="772.5" y="474.5" text-anchor="middle" class="label">Oljefilter</text>
<text x="772.5" y="502.5" text-anchor="middle" class="small">amber</text>
<rect x="900" y="430" width="150" height="105" rx="12" fill="#e2e8f0" stroke="#334155" stroke-width="2.5" filter="url(#shadow)"/>
<text x="975.0" y="474.5" text-anchor="middle" class="label">Oljekjøler</text>
<text x="975.0" y="502.5" text-anchor="middle" class="small">blue</text>
<rect x="530" y="230" width="190" height="90" rx="12" fill="#e2e8f0" stroke="#334155" stroke-width="2.5" filter="url(#shadow)"/>
<text x="625.0" y="267.0" text-anchor="middle" class="label">Hovedoljekanal</text>
<text x="625.0" y="295.0" text-anchor="middle" class="small">amber</text>
<rect x="820" y="210" width="170" height="90" rx="12" fill="#e2e8f0" stroke="#334155" stroke-width="2.5" filter="url(#shadow)"/>
<text x="905.0" y="247.0" text-anchor="middle" class="label">Lager og turbo</text>
<text x="905.0" y="275.0" text-anchor="middle" class="small">slate</text>
<rect x="1040" y="330" width="130" height="80" rx="12" fill="#e2e8f0" stroke="#334155" stroke-width="2.5" filter="url(#shadow)"/>
<text x="1105.0" y="362.0" text-anchor="middle" class="label">Retur til sump</text>
<text x="1105.0" y="390.0" text-anchor="middle" class="small">gray</text>
<line x1="170.0" y1="510.0" x2="377.5" y2="510.0" class="arrow flow-orange"/>
<rect x="203.75" y="492.0" width="140" height="25" rx="12" fill="white" stroke="#e2e8f0"/>
<text x="273.75" y="510.0" text-anchor="middle" class="tiny">olje</text>
<line x1="377.5" y1="510.0" x2="575.0" y2="490.0" class="arrow flow-orange"/>
<rect x="406.25" y="482.0" width="140" height="25" rx="12" fill="white" stroke="#e2e8f0"/>
<text x="476.25" y="500.0" text-anchor="middle" class="tiny">sug</text>
<line x1="575.0" y1="490.0" x2="772.5" y2="482.5" class="arrow flow-orange"/>
<rect x="603.75" y="468.25" width="140" height="25" rx="12" fill="white" stroke="#e2e8f0"/>
<text x="673.75" y="486.25" text-anchor="middle" class="tiny">trykk</text>
<line x1="772.5" y1="482.5" x2="975.0" y2="482.5" class="arrow flow-orange"/>
<rect x="803.75" y="464.5" width="140" height="25" rx="12" fill="white" stroke="#e2e8f0"/>
<text x="873.75" y="482.5" text-anchor="middle" class="tiny">filtrert</text>
<line x1="975.0" y1="482.5" x2="625.0" y2="275.0" class="arrow flow-orange"/>
<rect x="730.0" y="360.75" width="140" height="25" rx="12" fill="white" stroke="#e2e8f0"/>
<text x="800.0" y="378.75" text-anchor="middle" class="tiny">temperert</text>
<line x1="625.0" y1="275.0" x2="905.0" y2="255.0" class="arrow flow-orange"/>
<rect x="695.0" y="247.0" width="140" height="25" rx="12" fill="white" stroke="#e2e8f0"/>
<text x="765.0" y="265.0" text-anchor="middle" class="tiny">trykkolje</text>
<line x1="905.0" y1="255.0" x2="1105.0" y2="370.0" class="arrow flow-orange"/>
<rect x="935.0" y="294.5" width="140" height="25" rx="12" fill="white" stroke="#e2e8f0"/>
<text x="1005.0" y="312.5" text-anchor="middle" class="tiny">retur</text>
<line x1="1105.0" y1="370.0" x2="170.0" y2="510.0" class="arrow flow-orange"/>
<rect x="567.5" y="422.0" width="140" height="25" rx="12" fill="white" stroke="#e2e8f0"/>
<text x="637.5" y="440.0" text-anchor="middle" class="tiny">drenering</text>
<rect x="48" y="690" width="1184" height="42" rx="10" fill="#fff" stroke="#e2e8f0"/>
<text x="64" y="716" class="small">Lavt oljetrykk kan skyldes olje, filter, pumpe, sensor, slitasje eller feil viskositet.</text>
</svg>
