<svg xmlns="http://www.w3.org/2000/svg" width="1280" height="760" viewBox="0 0 1280 760" role="img" aria-labelledby="title desc">
<title id="title">Hydraulikk</title>
<desc id="desc">Pumpe, ventilblokk, filter, kjøler og aktuator</desc>

    <defs>
      <marker id="arrow" viewBox="0 0 10 10" refX="9" refY="5" markerWidth="8" markerHeight="8" orient="auto-start-reverse">
        <path d="M 0 0 L 10 5 L 0 10 z" fill="#334155"/>
      </marker>
      <filter id="shadow" x="-20%" y="-20%" width="140%" height="140%">
        <feDropShadow dx="0" dy="4" stdDeviation="5" flood-color="#0f172a" flood-opacity="0.12"/>
      </filter>
      <style>
        .title{font:700 34px Arial,Helvetica,sans-serif;fill:#172033}
        .subtitle{font:400 17px Arial,Helvetica,sans-serif;fill:#526071}
        .label{font:700 16px Arial,Helvetica,sans-serif;fill:#172033}
        .small{font:400 13px Arial,Helvetica,sans-serif;fill:#526071}
        .tiny{font:400 12px Arial,Helvetica,sans-serif;fill:#526071}
        .arrow{fill:none;stroke:#334155;stroke-width:4;stroke-linecap:round;stroke-linejoin:round;marker-end:url(#arrow)}
        .flow-blue{stroke:#2563eb}.flow-red{stroke:#dc2626}.flow-green{stroke:#0f766e}.flow-orange{stroke:#ea580c}.flow-cyan{stroke:#0891b2}.flow-purple{stroke:#7c3aed}.flow-slate{stroke:#334155}.flow-gray{stroke:#64748b}
      </style>
    </defs>
<rect width="1280" height="760" rx="0" fill="#f8fafc"/>
<text x="48" y="58" class="title">Hydraulikk</text>
<text x="48" y="88" class="subtitle">Pumpe, ventilblokk, filter, kjøler og aktuator</text>
<line x1="48" y1="126" x2="1232" y2="126" stroke="#e2e8f0" stroke-width="1"/>
<line x1="48" y1="324" x2="1232" y2="324" stroke="#e2e8f0" stroke-width="1"/>
<line x1="48" y1="522" x2="1232" y2="522" stroke="#e2e8f0" stroke-width="1"/>
<path d="M80,448 C80,424 245,424 245,448 L245,507 C245,531 80,531 80,507 Z" fill="#e2e8f0" stroke="#334155" stroke-width="2.5" filter="url(#shadow)"/>
<ellipse cx="162.5" cy="448" rx="82.5" ry="18" fill="#e2e8f0" stroke="#334155" stroke-width="2.5"/>
<text x="162.5" y="469.5" text-anchor="middle" class="label">Hydraulikktank</text>
<text x="162.5" y="497.5" text-anchor="middle" class="small">blue</text>
<path d="M300,448 C300,424 445,424 445,448 L445,507 C445,531 300,531 300,507 Z" fill="#e2e8f0" stroke="#334155" stroke-width="2.5" filter="url(#shadow)"/>
<ellipse cx="372.5" cy="448" rx="72.5" ry="18" fill="#e2e8f0" stroke="#334155" stroke-width="2.5"/>
<text x="372.5" y="469.5" text-anchor="middle" class="label">Filter</text>
<text x="372.5" y="497.5" text-anchor="middle" class="small">blue</text>
<circle cx="582.5" cy="467.5" r="57.5" fill="#e2e8f0" stroke="#334155" stroke-width="2.5" filter="url(#shadow)"/>
<text x="582.5" y="459.5" text-anchor="middle" class="label">Hydraulikkpumpe</text>
<text x="582.5" y="487.5" text-anchor="middle" class="small">blue</text>
<rect x="715" y="395" width="170" height="130" rx="12" fill="#e2e8f0" stroke="#334155" stroke-width="2.5" filter="url(#shadow)"/>
<text x="800.0" y="452.0" text-anchor="middle" class="label">Ventilblokk</text>
<text x="800.0" y="480.0" text-anchor="middle" class="small">purple</text>
<rect x="960" y="250" width="170" height="105" rx="12" fill="#e2e8f0" stroke="#334155" stroke-width="2.5" filter="url(#shadow)"/>
<text x="1045.0" y="294.5" text-anchor="middle" class="label">Aktuator</text>
<text x="1045.0" y="322.5" text-anchor="middle" class="small">green</text>
<rect x="960" y="470" width="170" height="85" rx="12" fill="#e2e8f0" stroke="#334155" stroke-width="2.5" filter="url(#shadow)"/>
<text x="1045.0" y="504.5" text-anchor="middle" class="label">Oljekjøler</text>
<text x="1045.0" y="532.5" text-anchor="middle" class="small">cyan</text>
<line x1="162.5" y1="477.5" x2="372.5" y2="477.5" class="arrow flow-blue"/>
<rect x="197.5" y="459.5" width="140" height="25" rx="12" fill="white" stroke="#e2e8f0"/>
<text x="267.5" y="477.5" text-anchor="middle" class="tiny">olje</text>
<line x1="372.5" y1="477.5" x2="582.5" y2="467.5" class="arrow flow-blue"/>
<rect x="407.5" y="454.5" width="140" height="25" rx="12" fill="white" stroke="#e2e8f0"/>
<text x="477.5" y="472.5" text-anchor="middle" class="tiny">sug</text>
<line x1="582.5" y1="467.5" x2="800.0" y2="460.0" class="arrow flow-blue"/>
<rect x="621.25" y="445.75" width="140" height="25" rx="12" fill="white" stroke="#e2e8f0"/>
<text x="691.25" y="463.75" text-anchor="middle" class="tiny">trykk</text>
<line x1="800.0" y1="460.0" x2="1045.0" y2="302.5" class="arrow flow-green"/>
<rect x="852.5" y="363.25" width="140" height="25" rx="12" fill="white" stroke="#e2e8f0"/>
<text x="922.5" y="381.25" text-anchor="middle" class="tiny">arbeid</text>
<line x1="1045.0" y1="302.5" x2="800.0" y2="460.0" class="arrow flow-green"/>
<rect x="852.5" y="363.25" width="140" height="25" rx="12" fill="white" stroke="#e2e8f0"/>
<text x="922.5" y="381.25" text-anchor="middle" class="tiny">retur</text>
<line x1="800.0" y1="460.0" x2="1045.0" y2="512.5" class="arrow flow-cyan"/>
<rect x="852.5" y="468.25" width="140" height="25" rx="12" fill="white" stroke="#e2e8f0"/>
<text x="922.5" y="486.25" text-anchor="middle" class="tiny">retur</text>
<line x1="1045.0" y1="512.5" x2="162.5" y2="477.5" class="arrow flow-cyan"/>
<rect x="533.75" y="477.0" width="140" height="25" rx="12" fill="white" stroke="#e2e8f0"/>
<text x="603.75" y="495.0" text-anchor="middle" class="tiny">avkjølt</text>
<rect x="48" y="690" width="1184" height="42" rx="10" fill="#fff" stroke="#e2e8f0"/>
<text x="64" y="716" class="small">Skum, varme, treg respons eller støy kan skyldes luft, filter, lavt nivå, pumpe eller ventilfeil.</text>
</svg>
