<svg xmlns="http://www.w3.org/2000/svg" width="1280" height="760" viewBox="0 0 1280 760" role="img" aria-labelledby="title desc">
<title id="title">Girsystem / marine gear</title>
<desc id="desc">Reduksjon, clutch, oljetrykk og kjøling</desc>

    <defs>
      <marker id="arrow" viewBox="0 0 10 10" refX="9" refY="5" markerWidth="8" markerHeight="8" orient="auto-start-reverse">
        <path d="M 0 0 L 10 5 L 0 10 z" fill="#334155"/>
      </marker>
      <filter id="shadow" x="-20%" y="-20%" width="140%" height="140%">
        <feDropShadow dx="0" dy="4" stdDeviation="5" flood-color="#0f172a" flood-opacity="0.12"/>
      </filter>
      <style>
        .title{font:700 34px Arial,Helvetica,sans-serif;fill:#172033}
        .subtitle{font:400 17px Arial,Helvetica,sans-serif;fill:#526071}
        .label{font:700 16px Arial,Helvetica,sans-serif;fill:#172033}
        .small{font:400 13px Arial,Helvetica,sans-serif;fill:#526071}
        .tiny{font:400 12px Arial,Helvetica,sans-serif;fill:#526071}
        .arrow{fill:none;stroke:#334155;stroke-width:4;stroke-linecap:round;stroke-linejoin:round;marker-end:url(#arrow)}
        .flow-blue{stroke:#2563eb}.flow-red{stroke:#dc2626}.flow-green{stroke:#0f766e}.flow-orange{stroke:#ea580c}.flow-cyan{stroke:#0891b2}.flow-purple{stroke:#7c3aed}.flow-slate{stroke:#334155}.flow-gray{stroke:#64748b}
      </style>
    </defs>
<rect width="1280" height="760" rx="0" fill="#f8fafc"/>
<text x="48" y="58" class="title">Girsystem / marine gear</text>
<text x="48" y="88" class="subtitle">Reduksjon, clutch, oljetrykk og kjøling</text>
<line x1="48" y1="126" x2="1232" y2="126" stroke="#e2e8f0" stroke-width="1"/>
<line x1="48" y1="324" x2="1232" y2="324" stroke="#e2e8f0" stroke-width="1"/>
<line x1="48" y1="522" x2="1232" y2="522" stroke="#e2e8f0" stroke-width="1"/>
<rect x="80" y="300" width="160" height="100" rx="12" fill="#e2e8f0" stroke="#334155" stroke-width="2.5" filter="url(#shadow)"/>
<text x="160.0" y="342.0" text-anchor="middle" class="label">Motor</text>
<text x="160.0" y="370.0" text-anchor="middle" class="small">slate</text>
<rect x="300" y="300" width="135" height="100" rx="12" fill="#e2e8f0" stroke="#334155" stroke-width="2.5" filter="url(#shadow)"/>
<text x="367.5" y="342.0" text-anchor="middle" class="label">Input shaft</text>
<text x="367.5" y="370.0" text-anchor="middle" class="small">purple</text>
<rect x="500" y="260" width="160" height="130" rx="12" fill="#e2e8f0" stroke="#334155" stroke-width="2.5" filter="url(#shadow)"/>
<text x="580.0" y="317.0" text-anchor="middle" class="label">Clutch pack</text>
<text x="580.0" y="345.0" text-anchor="middle" class="small">purple</text>
<rect x="720" y="285" width="160" height="105" rx="12" fill="#e2e8f0" stroke="#334155" stroke-width="2.5" filter="url(#shadow)"/>
<text x="800.0" y="329.5" text-anchor="middle" class="label">Reduksjonsgear</text>
<text x="800.0" y="357.5" text-anchor="middle" class="small">purple</text>
<rect x="940" y="300" width="145" height="100" rx="12" fill="#e2e8f0" stroke="#334155" stroke-width="2.5" filter="url(#shadow)"/>
<text x="1012.5" y="342.0" text-anchor="middle" class="label">Output shaft</text>
<text x="1012.5" y="370.0" text-anchor="middle" class="small">purple</text>
<rect x="500" y="465" width="160" height="80" rx="12" fill="#e2e8f0" stroke="#334155" stroke-width="2.5" filter="url(#shadow)"/>
<text x="580.0" y="497.0" text-anchor="middle" class="label">Gearolje</text>
<text x="580.0" y="525.0" text-anchor="middle" class="small">amber</text>
<rect x="720" y="465" width="160" height="80" rx="12" fill="#e2e8f0" stroke="#334155" stroke-width="2.5" filter="url(#shadow)"/>
<text x="800.0" y="497.0" text-anchor="middle" class="label">Oljekjøler</text>
<text x="800.0" y="525.0" text-anchor="middle" class="small">cyan</text>
<line x1="160.0" y1="350.0" x2="367.5" y2="350.0" class="arrow flow-purple"/>
<rect x="193.75" y="332.0" width="140" height="25" rx="12" fill="white" stroke="#e2e8f0"/>
<text x="263.75" y="350.0" text-anchor="middle" class="tiny">moment</text>
<line x1="367.5" y1="350.0" x2="580.0" y2="325.0" class="arrow flow-purple"/>
<rect x="403.75" y="319.5" width="140" height="25" rx="12" fill="white" stroke="#e2e8f0"/>
<text x="473.75" y="337.5" text-anchor="middle" class="tiny">drift</text>
<line x1="580.0" y1="325.0" x2="800.0" y2="337.5" class="arrow flow-purple"/>
<rect x="620.0" y="313.25" width="140" height="25" rx="12" fill="white" stroke="#e2e8f0"/>
<text x="690.0" y="331.25" text-anchor="middle" class="tiny">valg</text>
<line x1="800.0" y1="337.5" x2="1012.5" y2="350.0" class="arrow flow-purple"/>
<rect x="836.25" y="325.75" width="140" height="25" rx="12" fill="white" stroke="#e2e8f0"/>
<text x="906.25" y="343.75" text-anchor="middle" class="tiny">reduksjon</text>
<line x1="580.0" y1="505.0" x2="580.0" y2="325.0" class="arrow flow-orange"/>
<rect x="510.0" y="397.0" width="140" height="25" rx="12" fill="white" stroke="#e2e8f0"/>
<text x="580.0" y="415.0" text-anchor="middle" class="tiny">trykk</text>
<line x1="580.0" y1="325.0" x2="800.0" y2="505.0" class="arrow flow-orange"/>
<rect x="620.0" y="397.0" width="140" height="25" rx="12" fill="white" stroke="#e2e8f0"/>
<text x="690.0" y="415.0" text-anchor="middle" class="tiny">varm olje</text>
<line x1="800.0" y1="505.0" x2="580.0" y2="505.0" class="arrow flow-cyan"/>
<rect x="620.0" y="487.0" width="140" height="25" rx="12" fill="white" stroke="#e2e8f0"/>
<text x="690.0" y="505.0" text-anchor="middle" class="tiny">retur</text>
<rect x="48" y="690" width="1184" height="42" rx="10" fill="#fff" stroke="#e2e8f0"/>
<text x="64" y="716" class="small">Riktig olje, trykk, kjøling og koblingsjustering må kontrolleres før gear dømmes defekt.</text>
</svg>
